<svg version="1.2" xmlns="http://www.w3.org/2000/svg" viewBox="0 0 243 229" width="233" height="220">
	<title>banners</title>
	<style>
		.s0 { fill: #202331 } 
	</style>
	<g id="Group 2 copy 18">
		<path id="Shape 5" fill-rule="evenodd" class="s0" d="m161.5 152.3q-1 0.1-2.2 0l0.4-3.2c2.2 0.3 4-0.3 5.6-1.8 2.8-2.9 3.7-8 3.4-10.8-0.1-0.8-0.8-1.2-2.8-1.7-1.5-0.4-3.5-1-4.2-2.8-0.6-1.7 0.1-3.8 2.2-7 2.2-3.1 4.6-4.6 7.1-4.3 4.6 0.4 7.4 6.7 7.7 7.4l-1.4 0.7-1.5 0.6c-0.6-1.4-2.8-5.3-5.1-5.5-1.6-0.2-3.1 1.5-4.1 3-2.1 3-1.9 3.9-1.8 4 0.1 0.3 1.3 0.6 2 0.8 1.9 0.5 4.7 1.3 5.1 4.4 0.4 4.1-0.9 10-4.4 13.5-1.7 1.6-3.7 2.5-6 2.7zm-100.5-7.4c-3.6-1.9-7.3-2.6-11.4-2.3 3.1-3.4 10-2.1 11.4 2.3zm146.8-70.5q0.3 1.4 0.4 2.6 0.2 2.6 0.2 5-0.3-1.4-0.9-2.6-0.3-0.5-0.5-0.9-0.2-0.4-0.5-0.8-0.8-1.1-1.7-2.1c-4.3-4.6-10.6-6.7-10.6-6.7 0 0 0.3 9.5 6.1 16.1-5.9-1.6-11.5-3.4-16.8-5.3 2.2-13.3-15.3-18.1-15.3-18.1 0 0 0.8 8.3 5.9 14.4q-6.9-2.8-13-5.8c5.1-11.5-9.1-21-9.1-21 0 0-2.3 9.3 1.6 17.1-6-3.2-11.3-6.4-15.9-9.3 3.2-10.8-10.6-17.6-10.6-17.6 0 0-0.6 5.7 1.6 11.3q-2.8-2.1-4.8-3.7c-1.8-9.4-15.1-9.9-15.1-9.9 0 0 3.8 11.6 13.8 13q2.2 1.7 5.2 3.9c-6.9-0.5-13.7 4.6-13.7 4.6 0 0 12.1 7.7 21.9 1 3.7 2.4 7.9 5 12.6 7.6-7.1 0.4-13.6 5.5-13.6 5.5 0 0 14 8.4 24.8 0.4q6.6 3.2 14.1 6.3c-7.6 1.9-12.9 10.3-12.9 10.3 0 0 14.8 3.1 22.6-6.6q7.1 2.5 15 4.7c-6.7 3.4-10.4 11.6-10.4 11.6 0 0 8.7 0.6 15.7-3.9q0.9-0.5 1.7-1.2 0.3-0.2 0.6-0.4 0.3-0.3 0.5-0.5 0.5-0.5 1-1-0.5 3-1.1 6c-0.9 19.5-5.7 28.9-5.9 29.3v0.1c-0.1 0.1-6.1 7-9.3 21.4-2.8 13.1-13.5 19.3-19.9 20.9-20.4 15.4-45.9 18.5-46.3 18.6l-0.8 0.1c-12.1 13.9-30.1 19.1-48.6 20.6-7.6 0.6-15.3 0.7-22.7 0.4-3-0.1-5.4-1.3-6.9-3.5-3.8-5.4-1.2-14.4-1.1-14.5 0.9-2.8-0.4-10.9-1.5-17.3-0.7-4.2-1.4-8.2-1.5-10.7-0.1-3.9-0.6-12-1.1-18.4-1.3-1.3-2.2-2.7-2.7-4.3q-1.6-3.6-0.1-8.9 0.2-1.1 0.6-2.1 0 0 0 0c-4.9 1.4-7.6-9.2-9.2-17.1-1.8-9.1 4.9-15.2 13.9-16.8 0.9-3 1.9-6.2 3.1-9.4-4.3-3.3-6.8-7.6-7.4-12.9-1.9-18.1 19-40.4 19.2-40.6 2.2-2.2 6.2-3.5 10.8-4.9 5.1-1.6 11-3.4 15.5-7.1 6.3-5.3 23-4.8 36.4-4.3 4.9 0.1 9.5 0.3 13 0.1 13.3-0.6 17.6-0.2 29.1 12.1q0.6 0.7 1.3 1.3 6.4 3.1 12.5 7.1 1.2 0.3 2.5 0.5c4.4 1 9.4 2 16.7 6.2 11.8 6.6 12.4 17 11.6 30.1zm-69 37.1c-9.6-2.8-34.4-9.8-37.8-10.7-2.5-0.7-7.1 0.3-9.9 1.1 0.1 1.4 0.2 3 0.2 4.6 6.7 0.8 10.4 4.7 10.6 4.9l-2.4 2.1c-0.2-0.1-3-3.1-8.4-3.8-0.7 8.4-3.8 17.3-12.6 18.3-11.7 1.2-15.2-13.2-15.5-21.5-0.7-0.1-1.6-0.1-2.9-0.1-2.2 1.8-13.6 11.1-18.4 25.3q-0.2 0.6-0.4 1.3c-0.6 2.4-0.8 5.2 0.2 7.5q0.2 0.5 0.5 0.9c2.5 3.2 8.2 3.6 10.1 3.5l0.2 3.2c-0.2 0-4.2 0.2-7.9-1.3 0.2 3.3 0.4 6.9 0.6 10.1 0.5-1.3 0.8-2.7 1.1-4.2 0.6 2.1 0.3 4.6-1 6.5 0.1 1.7 0.2 3.3 0.3 4.4 0 2.4 0.7 6.3 1.4 10.3 0.6 4.2 1.3 8.4 1.6 12 1.9-2.5 2.2-5.7 2.1-8.9 1.6 3 1 7.5-2 9.4 0.2 2.7 0.1 4.9-0.4 6.4-0.6 2-1.6 8.4 0.7 11.7 0.9 1.3 2.4 2 4.4 2.1 33.2 1.1 72.4-3.1 81.4-46.9l3.1-15.4 0.1 15.7c0 9-6.1 19.7-9.4 24.9 7.5-1.4 25.4-5.7 40.5-16.8 0.5-2.4 1.2-4.7 2-6.8q-2.4 1.4-5.1 2-1.1 0.2-2.2 0.3c-8.4 0.7-15.1-4.6-15.4-4.8l1.1-1.3 1-1.2c0 0 7 5.5 14.9 3.8q4.7-1 8.6-5.1c0.9-1.8 1.6-2.9 1.7-3 0.1-0.1 11.2-16 8.2-28.4-1-4.5-3.9-8.1-8.4-10.6-13.1-3-21.3 7.8-25.5 15.8-2 8.7-0.2 15.1-0.1 15.5l-3 0.9c-0.1-0.3-0.9-2.9-1-7.1l-0.4-1c0-0.2-4.1-12.5-6.5-25.6zm-53-56.6q-2.4 0.4-5 1.9c-6.8 4.1-11.1 4.8-13.6 4.8-2.3-0.1-4.7 0.9-6.3 2.8-2.2 2.6-5.2 6.8-8.3 13.4q0 0 0 0-0.3 1.3-0.6 2.4c-0.6 2.4-1.1 4.3-1.6 5.6-1.3 3.5-2.4 6.8-3.4 10q0.6 0 1.1 0c6.3-0.1 8 4.1 8.3 7.7 3-0.4 5.2-0.4 6.7-0.2q0-0.6 0.1-1c0.9-5.9 2.5-11.6 15.2-11.9 0 0 10.3-0.3 12 7q0.2 0.6 0.3 1.3c2.9-0.8 7.9-1.9 11.1-1 3.3 0.8 26 7.3 36.5 10.3-0.4-2.4-0.7-4.7-0.9-7-0.2-3-1.3-5.9-3-8.5-5.8-8.4-5.9-10.4-5.9-12.6-0.1-1.3-0.1-2.7-1.4-5.7-4.3-9.8-23.6-22.2-41.3-19.3zm-15.7 90.4c3-4 0.3-7.7-2.5-11 7.2 2.3 8.2 10.8 0.7 13.6 0.6-0.9 1.3-1.7 1.8-2.6zm11.1 17.5l1.6 2.9c-0.3 0.1-4.5 2.4-9.4 2.8-2 0.2-4.1 0-6.1-0.7-9.9-3.8-17.8-0.6-17.9-0.6l-1.2-3c0.4-0.1 9.2-3.6 20.3 0.6 5.4 2 12.7-1.9 12.7-2zm-23.1-1.9c-3-2.3-3.2-7.1-1.1-10.1-0.6 3.5-0.6 6.9 1.1 10.1zm6.1 0.8c-4-1.3-5-6.6-3.5-10.1 0.1 3.7 0.6 7.5 3.5 10.1zm5.5 1c-3.1-1.3-5.2-5.2-4-8.5 0.4 3.3 2 6 4 8.5zm5.3 0.2c-3.2-0.6-5.4-4.5-3.9-7.4 0.1 3 1.7 5.5 3.9 7.4zm-28.6-1.3c2.5-2.7 2.9-6.1 2.7-9.8 1.8 3.3 0.9 8.3-2.7 9.8zm9.7 26.2c-3-2.3-3.2-7.1-1.1-10.1-0.6 3.5-0.5 6.9 1.1 10.1zm-4.5 16.8c-3.4-2.5-3.5-7.9-1-11-1 3.8-1.1 7.6 1 11zm6.3 1.3c-3.8-2.8-4.2-8.4-2.8-12.6 0.1 4.4 0.2 8.9 2.8 12.6zm7 0c-4.3-2.2-5.3-8.1-3.9-12.4 0.2 4.5 0.7 9 3.9 12.4zm7.6-0.4c-4.6-1.2-6.5-7-5.2-11.2 0.4 4.3 1.5 8.6 5.2 11.2zm6.6 0c-4.7-1.7-6.3-7.7-5.7-12.2 1 4.4 1.9 9.3 5.7 12.2zm6.4-0.7c-5-1.8-6.8-8-6.5-12.8 1.3 4.7 2.5 9.7 6.5 12.8zm6.1-1.2c-5.1-1.6-7.5-7.5-7.7-12.5 1.7 4.7 3.5 9.5 7.7 12.5zm5.5-1.5c-4.1-2.3-6.4-7.2-6.5-11.8 1.6 4.3 3.5 8.4 6.5 11.8zm4.4-2.2c-3.3-2.6-5.5-6.6-6.2-10.8 2.1 3.7 4 7.2 6.2 10.8zm6-3.1c-3.8-1.3-6.7-4.8-7.4-8.7 2.1 3.3 4.5 6.1 7.4 8.7zm6.5-3.9c-4.3 0.4-8.4-2.9-9.3-7 2.4 3.3 5.4 5.8 9.3 7zm4.2-3c-4.1-0.1-8.1-3.4-8.6-7.5 1.9 3.5 5 5.9 8.6 7.5zm3.5-3.7c-5-0.1-8.4-5.1-9.5-9.5 2.5 3.7 5 7.9 9.5 9.5zm4-5.7c-5.4 1.2-9.7-4.3-10.1-9.3 2 4.5 4.9 8.8 10.1 9.3zm1.8-2.9c-6.2-1.2-9.4-8.1-10.3-13.8 2.4 5.2 4.8 11.1 10.3 13.8zm2.8-6.1c-6.9-1.2-10.2-8.9-11.1-15.1 2.4 5.8 4.9 12.5 11.1 15.1zm2.3-7.2c-6.4-0.4-9.8-7.5-10.5-13.2 2.2 5.2 4.7 11.2 10.5 13.2zm1.6-7.8c-6-0.5-8.7-7.5-8.6-12.8 1.5 5 3.3 10.8 8.6 12.8zm1.3-5.4c-5.7-2-6.9-9.2-5.7-14.4 0.4 5.2 1 11.1 5.7 14.4zm1.7-7.2c-3.9-2.2-3.4-8.4-2.1-12 0.3 4.1-0.6 8.6 2.1 12z"/>
	</g>
</svg>