<?xml version="1.0" encoding="UTF-8" standalone="no"?>
<!-- Created with Inkscape (http://www.inkscape.org/) -->

<svg
   version="1.1"
   id="svg2"
   width="666.66669"
   height="666.66669"
   viewBox="0 0 666.66669 666.66669"
   sodipodi:docname="2965739.ai"
   xmlns:inkscape="http://www.inkscape.org/namespaces/inkscape"
   xmlns:sodipodi="http://sodipodi.sourceforge.net/DTD/sodipodi-0.dtd"
   xmlns="http://www.w3.org/2000/svg"
   xmlns:svg="http://www.w3.org/2000/svg">
  <defs
     id="defs6">
    <clipPath
       clipPathUnits="userSpaceOnUse"
       id="clipPath16">
      <path
         d="M 0,500 H 500 V 0 H 0 Z"
         id="path14" />
    </clipPath>
    <clipPath
       clipPathUnits="userSpaceOnUse"
       id="clipPath32">
      <path
         d="M 0,500 H 500 V 0 H 0 Z"
         id="path30" />
    </clipPath>
    <clipPath
       clipPathUnits="userSpaceOnUse"
       id="clipPath404">
      <path
         d="M 0,500 H 500 V 0 H 0 Z"
         id="path402" />
    </clipPath>
  </defs>
  <sodipodi:namedview
     id="namedview4"
     pagecolor="#ffffff"
     bordercolor="#000000"
     borderopacity="0.25"
     inkscape:showpageshadow="2"
     inkscape:pageopacity="0.0"
     inkscape:pagecheckerboard="0"
     inkscape:deskcolor="#d1d1d1" />
  <g
     id="g8"
     inkscape:groupmode="layer"
     inkscape:label="2965739"
     transform="matrix(1.3333333,0,0,-1.3333333,0,666.66667)">
    <g
       id="g10">
      <g
         id="g12"
         clip-path="url(#clipPath16)">
        <g
           id="g18"
           transform="translate(57.1846,107.3828)">
          <path
             d="m 0,0 c 0,0 -32.696,76.966 8.655,135.131 41.35,58.164 16.131,109.727 88.735,161.06 93.321,65.98 183.334,0.88 210.175,-43.256 26.841,-44.138 118.012,-21.606 91.516,-147.196 C 378.527,8.317 393.863,4.044 393.863,4.044 Z"
             style="fill:#f1eefd;fill-opacity:1;fill-rule:nonzero;stroke:none"
             id="path20" />
        </g>
        <g
           id="g22"
           transform="translate(76.8853,128.2041)">
          <path
             d="m 0,0 c 0,0 -58.024,30.314 -44.042,98.479 13.98,68.164 70.92,84.338 94.337,79.334 43.89,-9.378 -27.817,-37.051 -44.946,10.447 -21.492,59.596 55.138,104.717 126.173,93.039 45.653,-7.504 67.69,-29.359 108.272,-43.091 40.437,-13.683 57.397,4.643 41.287,15.264 -15.293,10.083 -70.82,-6.367 -51.755,-28.912 26.105,-30.871 89.017,16.959 137.777,-36.3 48.759,-53.259 6.43,-120.216 -31.055,-125.8 C 298.563,56.877 315,110.684 373.533,68.044 432.067,25.403 358.13,-20.821 358.13,-20.821"
             style="fill:none;stroke:#c3c8ff;stroke-width:1;stroke-linecap:butt;stroke-linejoin:miter;stroke-miterlimit:10;stroke-dasharray:none;stroke-opacity:1"
             id="path24" />
        </g>
      </g>
    </g>
    <g
       id="g26">
      <g
         id="g28"
         clip-path="url(#clipPath32)">
        <g
           id="g34"
           transform="translate(475.3105,103.1191)">
          <path
             d="m 0,0 h -443.544 c -2.355,0 -4.264,1.909 -4.264,4.264 0,2.354 1.909,4.262 4.264,4.262 H 4.263 V 4.264 C 4.263,1.909 2.354,0 0,0"
             style="fill:#6876eb;fill-opacity:1;fill-rule:nonzero;stroke:none"
             id="path36" />
        </g>
        <g
           id="g38"
           transform="translate(191.1602,103.1191)">
          <path
             d="m 0,0 h -159.394 c -2.355,0 -4.263,1.909 -4.263,4.264 V 8.526 H 4.263 V 4.264 C 4.263,1.909 2.354,0 0,0"
             style="fill:#1c145e;fill-opacity:1;fill-rule:nonzero;stroke:none"
             id="path40" />
        </g>
        <g
           id="g42"
           transform="translate(257.4224,274.1699)">
          <path
             d="m 0,0 c -18.995,-36.501 -40.336,-51.37 -40.336,-51.37 l 18.431,-29.426 32.184,33.445 z"
             style="fill:#1c145e;fill-opacity:1;fill-rule:nonzero;stroke:none"
             id="path44" />
        </g>
        <g
           id="g46"
           transform="translate(304.5176,282.8818)">
          <path
             d="m 0,0 -47.095,-8.712 c -2.984,-89.103 -4.101,-162.513 -4.101,-162.513 h 84.534 c 0,0 2.453,136.443 -11.146,166.213 z"
             style="fill:#1c145e;fill-opacity:1;fill-rule:nonzero;stroke:none"
             id="path48" />
        </g>
        <g
           id="g50"
           transform="translate(299.0488,237.4746)">
          <path
             d="M 0,0 22.944,1.941"
             style="fill:none;stroke:#6876eb;stroke-width:4;stroke-linecap:butt;stroke-linejoin:miter;stroke-miterlimit:10;stroke-dasharray:none;stroke-opacity:1"
             id="path52" />
        </g>
        <g
           id="g54"
           transform="translate(288.5171,256.625)">
          <path
             d="M 0,0 C 0,0 14.563,-99.377 1.892,-139.587"
             style="fill:none;stroke:#6876eb;stroke-width:1;stroke-linecap:butt;stroke-linejoin:miter;stroke-miterlimit:10;stroke-dasharray:none;stroke-opacity:1"
             id="path56" />
        </g>
        <g
           id="g58"
           transform="translate(273.2686,206.8467)">
          <path
             d="m 0,0 c 0,0 14.066,-5.662 32.302,-6.261 18.236,-0.598 6.89,-10.301 -20.144,-8.462"
             style="fill:none;stroke:#6876eb;stroke-width:1;stroke-linecap:butt;stroke-linejoin:miter;stroke-miterlimit:10;stroke-dasharray:none;stroke-opacity:1"
             id="path60" />
        </g>
        <g
           id="g62"
           transform="translate(276.894,286.5049)">
          <path
             d="M 0,0 11.623,-30.88 27.624,-3.623 17.078,13.61 Z"
             style="fill:#e9a394;fill-opacity:1;fill-rule:nonzero;stroke:none"
             id="path64" />
        </g>
        <g
           id="g66"
           transform="translate(288.5171,255.625)">
          <path
             d="M 0,0 21.697,5.99 16,27.257 Z"
             style="fill:#6876eb;fill-opacity:1;fill-rule:nonzero;stroke:none"
             id="path68" />
        </g>
        <g
           id="g70"
           transform="translate(279.4766,279.6436)">
          <path
             d="M 0,0 -11.775,-13.153 9.041,-24.019 Z"
             style="fill:#6876eb;fill-opacity:1;fill-rule:nonzero;stroke:none"
             id="path72" />
        </g>
        <g
           id="g74"
           transform="translate(235.5171,193.374)">
          <path
             d="M 0,0 C 0,0 6.876,14.34 -7.89,32.812 -16.078,43.055 -19.85,60.73 -19.85,60.73 L -32.153,58.859 -20.888,0 Z"
             style="fill:#e9a394;fill-opacity:1;fill-rule:nonzero;stroke:none"
             id="path76" />
        </g>
        <g
           id="g78"
           transform="translate(200.8501,272.5596)">
          <path
             d="m 0,0 -5.037,-4.579 6.733,-5.943 -21.085,0.359 -0.452,-7.236 22.355,-2.927 12.303,1.87 z"
             style="fill:#e9a394;fill-opacity:1;fill-rule:nonzero;stroke:none"
             id="path80" />
        </g>
        <g
           id="g82"
           transform="translate(204.5356,261.2915)">
          <path
             d="M 0,0 -20.232,8.345 -21.538,4.75 -4.652,-2.346 Z"
             style="fill:#e9a394;fill-opacity:1;fill-rule:nonzero;stroke:none"
             id="path84" />
        </g>
        <g
           id="g86"
           transform="translate(326.71,277.8701)">
          <path
             d="M 0,0 C 0,0 27.176,-15.474 35.759,-73.436 L 4.229,-81.043 Z"
             style="fill:#1c145e;fill-opacity:1;fill-rule:nonzero;stroke:none"
             id="path88" />
        </g>
        <g
           id="g90"
           transform="translate(267.6865,324.2412)">
          <path
             d="M 0,0 -10.264,-26.265 -2.415,-28.68 0,-43.472 25.057,-37.736 28.68,2.415 Z"
             style="fill:#e9a394;fill-opacity:1;fill-rule:nonzero;stroke:none"
             id="path92" />
        </g>
        <g
           id="g94"
           transform="translate(284.4092,318)">
          <path
             d="m 0,0 h -19.162 l 2.09,5.662 L 0,6.718 Z"
             style="fill:#e37a82;fill-opacity:1;fill-rule:nonzero;stroke:none"
             id="path96" />
        </g>
        <g
           id="g98"
           transform="translate(294.4219,306.0176)">
          <path
             d="m 0,0 c 0,0 -12.226,2.529 -12.226,15.176 0,0 -18.139,-2.469 -24.401,7.378 -7.417,11.663 3.918,25.066 13.279,22.342 0,0 -5.899,-5.846 3.06,-6.534 6.389,-0.49 18.064,8.01 22.232,-0.211 0,0 32.159,-7.345 8.152,-37.308 z"
             style="fill:#16005c;fill-opacity:1;fill-rule:nonzero;stroke:none"
             id="path100" />
        </g>
        <g
           id="g102"
           transform="translate(282.1963,322.1938)">
          <path
             d="m 0,0 c 0,0 -24.247,-4.685 -29.318,12.703 -2.965,10.165 7.224,15.954 7.224,15.954"
             style="fill:none;stroke:#16005c;stroke-width:2;stroke-linecap:butt;stroke-linejoin:miter;stroke-miterlimit:10;stroke-dasharray:none;stroke-opacity:1"
             id="path104" />
        </g>
        <g
           id="g106"
           transform="translate(281.0552,307.1763)">
          <path
             d="m 0,0 c -0.437,-5.037 -4.874,-8.765 -9.91,-8.328 -5.037,0.437 -8.765,4.874 -8.328,9.911 0.437,5.036 4.874,8.764 9.91,8.327 C -3.292,9.473 0.437,5.036 0,0 Z"
             style="fill:none;stroke:#16005c;stroke-width:0.5;stroke-linecap:butt;stroke-linejoin:miter;stroke-miterlimit:10;stroke-dasharray:none;stroke-opacity:1"
             id="path108" />
        </g>
        <g
           id="g110"
           transform="translate(280.5967,310.9292)">
          <path
             d="M 0,0 13.036,-0.714"
             style="fill:none;stroke:#16005c;stroke-width:0.5;stroke-linecap:butt;stroke-linejoin:miter;stroke-miterlimit:10;stroke-dasharray:none;stroke-opacity:1"
             id="path112" />
        </g>
        <g
           id="g114"
           transform="translate(310.2139,303.7129)">
          <path
             d="m 0,0 c 0,-5.669 -7.596,-10.265 -13.264,-10.265 -5.669,0 -7.265,4.596 -7.265,10.265 0,5.668 4.596,10.264 10.265,10.264 C -4.596,10.264 0,5.668 0,0"
             style="fill:#e9a394;fill-opacity:1;fill-rule:nonzero;stroke:none"
             id="path116" />
        </g>
        <g
           id="g118"
           transform="translate(358.7065,203.5264)">
          <path
             d="m 0,0 v -47.331 h -23.601 l -1.964,41.163 z"
             style="fill:#e9a394;fill-opacity:1;fill-rule:nonzero;stroke:none"
             id="path120" />
        </g>
        <g
           id="g122"
           transform="translate(255.584,214.2275)">
          <path
             d="M 0,0 0.991,32.979 -14.297,-14.858 Z"
             style="fill:#1c145c;fill-opacity:1;fill-rule:nonzero;stroke:none"
             id="path124" />
        </g>
        <g
           id="g126"
           transform="translate(278.1094,283.3638)">
          <path
             d="M 0,0 14.634,3.141 2.636,-7.092 Z"
             style="fill:#e37a82;fill-opacity:1;fill-rule:nonzero;stroke:none"
             id="path128" />
        </g>
        <g
           id="g130"
           transform="translate(271.2065,307.3672)">
          <path
             d="m 0,0 c 0,-2.019 -0.785,-3.654 -1.752,-3.654 -0.968,0 -1.753,1.635 -1.753,3.654 0,2.018 0.785,3.654 1.753,3.654 C -0.785,3.654 0,2.018 0,0"
             style="fill:#16005c;fill-opacity:1;fill-rule:nonzero;stroke:none"
             id="path132" />
        </g>
        <g
           id="g134"
           transform="translate(274.2114,316.2534)">
          <path
             d="M 0,0 C 0,4.896 -3.898,1.6 -3.898,1.6 Z"
             style="fill:#16005c;fill-opacity:1;fill-rule:nonzero;stroke:none"
             id="path136" />
        </g>
        <g
           id="g138"
           transform="translate(270.3135,294.5781)">
          <path
             d="M 0,0 5.575,1.484 C 5.575,1.484 7.963,-19.194 0,0"
             style="fill:#ffffff;fill-opacity:1;fill-rule:nonzero;stroke:none"
             id="path140" />
        </g>
        <g
           id="g142"
           transform="translate(150.1748,201.8945)">
          <path
             d="m 0,0 c 0,0 37.613,5.819 38.352,-59.771 0.12,-10.643 6.897,-30.478 6.897,-30.478 H 11.162 Z"
             style="fill:#5321d7;fill-opacity:1;fill-rule:nonzero;stroke:none"
             id="path144" />
        </g>
        <g
           id="g146"
           transform="translate(110.8462,207.7139)">
          <path
             d="m 0,0 -22.733,-5.366 6.935,-90.702 h 88.453 c 0,0 -2.967,71.762 -36.323,93.293 z"
             style="fill:#6a3fdc;fill-opacity:1;fill-rule:nonzero;stroke:none"
             id="path148" />
        </g>
        <g
           id="g150"
           transform="translate(88.1128,202.3477)">
          <path
             d="m 0,0 c -23.432,-5.344 -17.947,-23.328 -13.422,-60.258 -11.695,-9.498 -0.475,-13.773 -0.475,-13.773 -12.844,-13.615 3.179,-16.671 3.179,-16.671 H 32.056 C 32.056,-90.702 23.448,5.349 0,0"
             style="fill:#6a3fdc;fill-opacity:1;fill-rule:nonzero;stroke:none"
             id="path152" />
        </g>
        <g
           id="g154"
           transform="translate(117.625,132.5957)">
          <path
             d="M 0,0 -10.265,47.119"
             style="fill:none;stroke:#5321d7;stroke-width:1;stroke-linecap:butt;stroke-linejoin:miter;stroke-miterlimit:10;stroke-dasharray:none;stroke-opacity:1"
             id="path156" />
        </g>
        <g
           id="g158"
           transform="translate(77.3945,111.6455)">
          <path
             d="m 0,0 c 0,0 7.221,16.581 30.047,24.917 18.924,6.911 46.607,-11.029 64.329,6.018 L 97.657,11.741 42.774,0 Z"
             style="fill:#e9a394;fill-opacity:1;fill-rule:nonzero;stroke:none"
             id="path160" />
        </g>
        <g
           id="g162"
           transform="translate(152.6362,254.4277)">
          <path
             d="M 0,0 16.922,-25.758 6.063,-29.634 4.186,-50.566 -28.448,-39.229 -25.374,3.35 Z"
             style="fill:#e9a394;fill-opacity:1;fill-rule:nonzero;stroke:none"
             id="path164" />
        </g>
        <g
           id="g166"
           transform="translate(127.5269,227.3711)">
          <path
             d="m 0,0 -16.681,-19.657 21.392,-26.216 9.648,30.62 z"
             style="fill:#e37a82;fill-opacity:1;fill-rule:nonzero;stroke:none"
             id="path168" />
        </g>
        <g
           id="g170"
           transform="translate(133.105,239.542)">
          <path
             d="m 0,0 23.87,8.281 -4.339,6.605 -23.58,-2.454 z"
             style="fill:#e37a82;fill-opacity:1;fill-rule:nonzero;stroke:none"
             id="path172" />
        </g>
        <g
           id="g174"
           transform="translate(131.0439,230.5195)">
          <path
             d="m 0,0 c 0,0 7.227,-14.47 2.199,13.422 0,0 6.858,-0.771 12.228,8.281 0,0 -1.669,-14.75 14.086,0 C 44.269,36.452 24.239,47.992 -0.234,43.65 -21.447,39.887 -42.675,27.901 -11.649,-12.732 Z"
             style="fill:#16005c;fill-opacity:1;fill-rule:nonzero;stroke:none"
             id="path176" />
        </g>
        <g
           id="g178"
           transform="translate(127.1802,224.7656)">
          <path
             d="m 0,0 c -1.628,-2.183 -4.425,-4.164 -7.333,-4.587 -5.816,-0.848 -11.497,3.744 -12.344,9.56 -0.846,5.816 2.091,8.837 7.906,9.683 3.269,0.477 7.055,-0.493 9.894,-2.466 C -1.02,11.12 0,0 0,0"
             style="fill:#e9a394;fill-opacity:1;fill-rule:nonzero;stroke:none"
             id="path180" />
        </g>
        <g
           id="g182"
           transform="translate(150.8096,236.8408)">
          <path
             d="m 0,0 c 0.54,-1.988 0.271,-3.791 -0.6,-4.027 -0.871,-0.237 -2.015,1.183 -2.554,3.171 -0.54,1.988 -0.271,3.791 0.6,4.027 C -1.683,3.407 -0.54,1.987 0,0"
             style="fill:#16005c;fill-opacity:1;fill-rule:nonzero;stroke:none"
             id="path184" />
        </g>
        <g
           id="g186"
           transform="translate(143.5859,241.4609)">
          <path
             d="M 0,0 C 0,0 -0.848,4.783 3.592,2.48 Z"
             style="fill:#16005c;fill-opacity:1;fill-rule:nonzero;stroke:none"
             id="path188" />
        </g>
        <g
           id="g190"
           transform="translate(108.1748,206.9092)">
          <path
             d="M 0,0 3.874,4.448 2.452,7.746 11.22,10.878 36.37,-1.77 37.296,-11.427 33.04,-10.082 26.092,-35.98 Z"
             style="fill:#6a3fdc;fill-opacity:1;fill-rule:nonzero;stroke:none"
             id="path192" />
        </g>
        <g
           id="g194"
           transform="translate(130.8857,200.5859)">
          <path
             d="M 0,0 14.585,-5.104 13.659,4.554"
             style="fill:none;stroke:#5321d7;stroke-width:1;stroke-linecap:butt;stroke-linejoin:miter;stroke-miterlimit:10;stroke-dasharray:none;stroke-opacity:1"
             id="path196" />
        </g>
        <g
           id="g198"
           transform="translate(133.2427,243.9414)">
          <path
             d="m 0,0 c 0,0 2.935,-17.076 7.226,-20.587 1.409,-1.153 4.076,1.78 16.354,2.026 7.507,0.151 7.501,-26.054 -2.461,-25.302 -9.962,0.751 -25.102,6.962 -27.37,26.061 C -8.241,-1.047 0,0 0,0"
             style="fill:#16005c;fill-opacity:1;fill-rule:nonzero;stroke:none"
             id="path200" />
        </g>
        <g
           id="g202"
           transform="translate(145.4712,220.1787)">
          <path
             d="M 0,0 C 0,0 2.532,-4.715 7.522,-1.521"
             style="fill:none;stroke:#c4c6c5;stroke-width:1;stroke-linecap:butt;stroke-linejoin:miter;stroke-miterlimit:10;stroke-dasharray:none;stroke-opacity:1"
             id="path204" />
        </g>
        <g
           id="g206"
           transform="translate(202.4023,122.4297)">
          <path
             d="m 0,0 h -83.968 v -6.222 c 0,-2.519 2.043,-4.562 4.562,-4.562 H 0 c 2.52,0 4.562,2.043 4.562,4.562 v 1.66 C 4.562,-2.043 2.52,0 0,0"
             style="fill:#1c145e;fill-opacity:1;fill-rule:nonzero;stroke:none"
             id="path208" />
        </g>
        <g
           id="g210"
           transform="translate(270.5972,184.7949)">
          <path
             d="m 0,0 h -97.676 c -2.903,0 -5.354,-2.157 -5.721,-5.037 l -7.87,-61.613 c -0.44,-3.448 2.246,-6.499 5.722,-6.499 h 97.676 c 2.903,0 5.354,2.158 5.722,5.038 L 5.722,-6.498 C 6.162,-3.051 3.476,0 0,0"
             style="fill:#1c145e;fill-opacity:1;fill-rule:nonzero;stroke:none"
             id="path212" />
        </g>
        <g
           id="g214"
           transform="translate(275.3242,184.7949)">
          <path
             d="m 0,0 h -97.676 c -2.903,0 -5.353,-2.157 -5.721,-5.037 l -7.869,-61.613 c -0.441,-3.448 2.245,-6.499 5.722,-6.499 h 97.675 c 2.903,0 5.354,2.158 5.722,5.038 L 5.722,-6.498 C 6.162,-3.051 3.476,0 0,0"
             style="fill:#6876eb;fill-opacity:1;fill-rule:nonzero;stroke:none"
             id="path216" />
        </g>
        <g
           id="g218"
           transform="translate(232.1855,148.2207)">
          <path
             d="m 0,0 c -0.56,-5.32 -5.326,-9.634 -10.646,-9.634 -5.321,0 -9.18,4.314 -8.621,9.634 0.559,5.32 5.326,9.634 10.646,9.634 C -3.3,9.634 0.559,5.32 0,0"
             style="fill:#ffffff;fill-opacity:1;fill-rule:nonzero;stroke:none"
             id="path220" />
        </g>
        <g
           id="g222"
           transform="translate(273.1938,112.168)">
          <path
             d="M 0,0 H -121.581"
             style="fill:none;stroke:#1c145e;stroke-width:1;stroke-linecap:butt;stroke-linejoin:miter;stroke-miterlimit:10;stroke-dasharray:none;stroke-opacity:1"
             id="path224" />
        </g>
        <g
           id="g226"
           transform="translate(326.9258,194.6221)">
          <path
             d="M 0,0 40.36,-0.766 31.211,48.608 9.75,46.179 c 0,0 -9.667,-14.269 -2.034,-25.363 C 16.33,8.299 -0.887,7.832 0,0"
             style="fill:#16005c;fill-opacity:1;fill-rule:nonzero;stroke:none"
             id="path228" />
        </g>
        <g
           id="g230"
           transform="translate(336.6753,240.8008)">
          <path
             d="M 0,0 C 0,0 -9.667,-14.269 -2.033,-25.362 6.58,-37.88 -10.636,-38.347 -9.75,-46.179"
             style="fill:none;stroke:#7079f1;stroke-width:2;stroke-linecap:butt;stroke-linejoin:miter;stroke-miterlimit:10;stroke-dasharray:none;stroke-opacity:1"
             id="path232" />
        </g>
        <g
           id="g234"
           transform="translate(344.7271,200.5859)">
          <path
             d="M 0,0 C 0,0 -18.364,-18.021 -28.047,-85.929 H -7.605 Z"
             style="fill:#7079f1;fill-opacity:1;fill-rule:nonzero;stroke:none"
             id="path236" />
        </g>
        <g
           id="g238"
           transform="translate(393.2612,205.6055)">
          <path
             d="m 0,0 -7.992,-90.948 h -59.372 l 7.391,34.735 c 0,0 -22.604,11.793 11.439,51.193 l 8.461,4.353 36.76,2.775 z"
             style="fill:#c3c8ff;fill-opacity:1;fill-rule:nonzero;stroke:none"
             id="path240" />
        </g>
        <g
           id="g242"
           transform="translate(344.7271,159.8818)">
          <path
             d="M 0,0 C 0,0 -3.559,-6.097 -0.138,-10.99 L -5.176,-45.225"
             style="fill:none;stroke:#7079f1;stroke-width:1;stroke-linecap:butt;stroke-linejoin:miter;stroke-miterlimit:10;stroke-dasharray:none;stroke-opacity:1"
             id="path244" />
        </g>
        <g
           id="g246"
           transform="translate(336.4287,149.2363)">
          <path
             d="M 0,0 34.389,-1.016"
             style="fill:none;stroke:#7079f1;stroke-width:1;stroke-linecap:butt;stroke-linejoin:miter;stroke-miterlimit:10;stroke-dasharray:none;stroke-opacity:1"
             id="path248" />
        </g>
        <g
           id="g250"
           transform="translate(377.5977,132.1162)">
          <path
             d="M 0,0 -3.637,43.744"
             style="fill:none;stroke:#7079f1;stroke-width:1;stroke-linecap:butt;stroke-linejoin:miter;stroke-miterlimit:10;stroke-dasharray:none;stroke-opacity:1"
             id="path252" />
        </g>
        <g
           id="g254"
           transform="translate(393.2612,205.6055)">
          <path
             d="m 0,0 c 0,0 3.279,-4.125 7.075,-13.69 5.382,-13.564 11.801,-38.066 11.38,-77.258 H -7.992 Z"
             style="fill:#c3c8ff;fill-opacity:1;fill-rule:nonzero;stroke:none"
             id="path256" />
        </g>
        <g
           id="g258"
           transform="translate(411.7163,111.6572)">
          <path
             d="M 0,0 C 0,0 -13.214,30.22 -46.451,21.571 -82.742,12.129 -96.218,13.894 -96.218,13.894 L -98.969,0 Z"
             style="fill:#e9a394;fill-opacity:1;fill-rule:nonzero;stroke:none"
             id="path260" />
        </g>
        <g
           id="g262"
           transform="translate(377.1221,139.5801)">
          <path
             d="M 0,0 -11.793,-2.638 14.994,-27.923 H 40.243 C 40.243,-27.923 29.361,-1.537 0,0"
             style="fill:#7079f1;fill-opacity:1;fill-rule:nonzero;stroke:none"
             id="path264" />
        </g>
        <g
           id="g266"
           transform="translate(377.8511,131.7373)">
          <path
             d="M 0,0 5.617,1.716"
             style="fill:none;stroke:#c3c8ff;stroke-width:1;stroke-linecap:butt;stroke-linejoin:miter;stroke-miterlimit:10;stroke-dasharray:none;stroke-opacity:1"
             id="path268" />
        </g>
        <g
           id="g270"
           transform="translate(315.4985,125.5508)">
          <path
             d="M 0,0 -17.244,3.565 -29.606,-13.894 H -2.751 Z"
             style="fill:#e9a394;fill-opacity:1;fill-rule:nonzero;stroke:none"
             id="path272" />
        </g>
        <g
           id="g274"
           transform="translate(344.7271,159.8818)">
          <path
             d="m 0,0 32.044,32.044 -5.953,2.811 22.443,10.869 -10.306,6.558 H 14.242 L 0,34.48 3.935,33.492 0,30.732 Z"
             style="fill:#7079f1;fill-opacity:1;fill-rule:nonzero;stroke:none"
             id="path276" />
        </g>
        <g
           id="g278"
           transform="translate(367.1304,201.2705)">
          <path
             d="m 0,0 10.467,7.234 -11.3,25.267 -17.514,-11 4.934,-20.959 -8.99,-41.931 z"
             style="fill:#e9a394;fill-opacity:1;fill-rule:nonzero;stroke:none"
             id="path280" />
        </g>
        <g
           id="g282"
           transform="translate(350.1924,216.7852)">
          <path
             d="M 0,0 12.292,6.409 1.317,-5.597 Z"
             style="fill:#e37a82;fill-opacity:1;fill-rule:nonzero;stroke:none"
             id="path284" />
        </g>
        <g
           id="g286"
           transform="translate(327.7373,253.3652)">
          <path
             d="m 0,0 -5.368,-29.747 h 8.052 l 9.04,-12.43 23.023,12.006 -16.102,35.878 z"
             style="fill:#e9a394;fill-opacity:1;fill-rule:nonzero;stroke:none"
             id="path288" />
        </g>
        <g
           id="g290"
           transform="translate(326.4355,246.1514)">
          <path
             d="M 0,0 -0.538,-3.267 20.694,-0.37 20.369,3.698 Z"
             style="fill:#e37a82;fill-opacity:1;fill-rule:nonzero;stroke:none"
             id="path292" />
        </g>
        <g
           id="g294"
           transform="translate(386.4238,255.625)">
          <path
             d="m 0,0 c -5.315,14.408 -11.813,19.962 -11.814,19.963 -13.025,12.944 -35.29,-1.418 -35.29,-1.418 -28.532,6.906 -16.95,-28.517 -16.95,-28.517 l 23.236,2.85 c 3.249,-19.491 14.868,-9.621 14.868,-9.621 l 5.418,-9.775 c 0.001,0 -5.467,-4.832 0.233,-13.116 4.693,-6.82 -6.545,-9.144 -3.641,-16.405 l 44.914,9.31 C 20.974,-17.18 9.606,-26.04 0,0"
             style="fill:#16005c;fill-opacity:1;fill-rule:nonzero;stroke:none"
             id="path296" />
        </g>
        <g
           id="g298"
           transform="translate(320.5493,245.4238)">
          <path
             d="m 0,0 c 0,0 -4.109,20.225 3.439,26.806 3.936,3.432 16.331,1.94 16.331,1.94"
             style="fill:none;stroke:#7079f1;stroke-width:2;stroke-linecap:butt;stroke-linejoin:miter;stroke-miterlimit:10;stroke-dasharray:none;stroke-opacity:1"
             id="path300" />
        </g>
        <g
           id="g302"
           transform="translate(410.3379,209.7441)">
          <path
             d="M 0,0 C 0,0 3.587,13.45 -15.956,28.701"
             style="fill:none;stroke:#16005c;stroke-width:2;stroke-linecap:butt;stroke-linejoin:miter;stroke-miterlimit:10;stroke-dasharray:none;stroke-opacity:1"
             id="path304" />
        </g>
        <g
           id="g306"
           transform="translate(370.8179,237.5312)">
          <path
             d="m 0,0 c 0,-5.344 -4.332,-9.676 -9.676,-9.676 -5.343,0 -9.675,4.332 -9.675,9.676 0,5.344 4.332,9.676 9.675,9.676 C -4.332,9.676 0,5.344 0,0"
             style="fill:#e9a394;fill-opacity:1;fill-rule:nonzero;stroke:none"
             id="path308" />
        </g>
        <g
           id="g310"
           transform="translate(336.4287,224.7129)">
          <path
             d="M 0,0 5.998,1.473 C 5.998,1.473 8.104,-15.634 0,0"
             style="fill:#ffffff;fill-opacity:1;fill-rule:nonzero;stroke:none"
             id="path312" />
        </g>
        <g
           id="g314"
           transform="translate(331.4341,234.8223)">
          <path
             d="M 0,0 C 0,0 1.91,11.636 6.086,0"
             style="fill:none;stroke:#1c145e;stroke-width:0.5;stroke-linecap:butt;stroke-linejoin:miter;stroke-miterlimit:10;stroke-dasharray:none;stroke-opacity:1"
             id="path316" />
        </g>
        <g
           id="g318"
           transform="translate(332.9082,243.6729)">
          <path
             d="M 0,0 C 0,0 2.325,3.938 5.081,0 Z"
             style="fill:#16005c;fill-opacity:1;fill-rule:nonzero;stroke:none"
             id="path320" />
        </g>
        <g
           id="g322"
           transform="translate(242.6543,348.4941)">
          <path
             d="m 0,0 c -3.479,9.678 -14.42,14.524 -24.011,10.389 -8.253,-3.56 -12.628,-12.922 -10.068,-21.538 1.432,-4.817 4.663,-8.543 8.71,-10.717 3.736,-2.006 6.943,-4.868 9.292,-8.398 l 0.678,-1.018 13.437,4.831 -0.125,1.211 c -0.443,4.288 0.307,8.578 1.892,12.587 C 1.352,-8.74 1.536,-4.27 0,0"
             style="fill:#c3c8ff;fill-opacity:1;fill-rule:nonzero;stroke:none"
             id="path324" />
        </g>
        <g
           id="g326"
           transform="translate(242.6543,348.4941)">
          <path
             d="m 0,0 c -3.479,9.678 -14.42,14.524 -24.011,10.389 -8.253,-3.56 -12.628,-12.922 -10.068,-21.538 1.432,-4.817 4.663,-8.543 8.71,-10.717 3.736,-2.006 6.943,-4.868 9.292,-8.398 l 0.678,-1.018 13.437,4.831 -0.125,1.211 c -0.443,4.288 0.307,8.578 1.892,12.587 C 1.352,-8.74 1.536,-4.27 0,0"
             style="fill:#c3c8ff;fill-opacity:1;fill-rule:nonzero;stroke:none"
             id="path328" />
        </g>
        <g
           id="g330"
           transform="translate(230.3296,321.1743)">
          <path
             d="m 0,0 -10.711,15.106 c 0,0 0.195,3.059 3.557,2.574 3.362,-0.485 5.37,-5.79 2.97,-4.934 -2.399,0.856 -3.248,7.093 1.291,8.044 4.54,0.951 6.057,-9.362 3.549,-7.375 -2.508,1.987 -1.98,8.553 2.882,8.607 L 6.391,0.236"
             style="fill:none;stroke:#ffffff;stroke-width:1;stroke-linecap:butt;stroke-linejoin:miter;stroke-miterlimit:10;stroke-dasharray:none;stroke-opacity:1"
             id="path332" />
        </g>
        <g
           id="g334"
           transform="translate(240.3804,311.7183)">
          <path
             d="m 0,0 -6.31,-2.269 c -2.399,-0.862 -5.043,0.383 -5.906,2.783 l -1.334,3.709 c -0.862,2.4 0.383,5.044 2.783,5.906 l 6.309,2.269 c 2.4,0.863 5.044,-0.383 5.907,-2.782 L 2.782,5.906 C 3.645,3.507 2.399,0.863 0,0"
             style="fill:#16005c;fill-opacity:1;fill-rule:nonzero;stroke:none"
             id="path336" />
        </g>
        <g
           id="g338"
           transform="translate(245.2153,318.2051)">
          <path
             d="m 0,0 -19.003,-6.833 -3.335,9.277 19.003,6.832 z"
             style="fill:#6876eb;fill-opacity:1;fill-rule:nonzero;stroke:none"
             id="path340" />
        </g>
        <g
           id="g342"
           transform="translate(225.3208,364.9409)">
          <path
             d="M 0,0 -1.896,10.869"
             style="fill:none;stroke:#c3c8ff;stroke-width:1;stroke-linecap:butt;stroke-linejoin:miter;stroke-miterlimit:10;stroke-dasharray:none;stroke-opacity:1"
             id="path344" />
        </g>
        <g
           id="g346"
           transform="translate(211.627,358.4673)">
          <path
             d="M 0,0 -9.078,8.867"
             style="fill:none;stroke:#c3c8ff;stroke-width:1;stroke-linecap:butt;stroke-linejoin:miter;stroke-miterlimit:10;stroke-dasharray:none;stroke-opacity:1"
             id="path348" />
        </g>
        <g
           id="g350"
           transform="translate(202.1665,342.3594)">
          <path
             d="M 0,0 -10.358,-0.742"
             style="fill:none;stroke:#c3c8ff;stroke-width:1;stroke-linecap:butt;stroke-linejoin:miter;stroke-miterlimit:10;stroke-dasharray:none;stroke-opacity:1"
             id="path352" />
        </g>
        <g
           id="g354"
           transform="translate(240.2515,358.9854)">
          <path
             d="M 0,0 4.662,8.645"
             style="fill:none;stroke:#c3c8ff;stroke-width:1;stroke-linecap:butt;stroke-linejoin:miter;stroke-miterlimit:10;stroke-dasharray:none;stroke-opacity:1"
             id="path356" />
        </g>
        <g
           id="g358"
           transform="translate(386.0923,279.1372)">
          <path
             d="m 0,0 h 64.229 c 2.233,0 4.372,1.811 4.776,4.044 l 6.637,36.617 c 0.405,2.234 -1.078,4.044 -3.31,4.044 H 8.103 c -2.233,0 -4.372,-1.81 -4.777,-4.044 L -3.311,4.044 C -3.716,1.811 -2.233,0 0,0"
             style="fill:#1c145c;fill-opacity:1;fill-rule:nonzero;stroke:none"
             id="path360" />
        </g>
        <g
           id="g362"
           transform="translate(430.8154,301.4897)">
          <path
             d="M 0,0 C -0.42,-2.32 1.119,-4.2 3.439,-4.2 5.758,-4.2 7.979,-2.32 8.4,0 8.82,2.319 7.281,4.2 4.961,4.2 2.642,4.2 0.42,2.319 0,0"
             style="fill:#ffffff;fill-opacity:1;fill-rule:nonzero;stroke:none"
             id="path364" />
        </g>
        <g
           id="g366"
           transform="translate(418.0581,301.4897)">
          <path
             d="M 0,0 C -0.42,-2.32 1.119,-4.2 3.438,-4.2 5.758,-4.2 7.979,-2.32 8.4,0 8.82,2.319 7.281,4.2 4.961,4.2 2.642,4.2 0.42,2.319 0,0"
             style="fill:#ffffff;fill-opacity:1;fill-rule:nonzero;stroke:none"
             id="path368" />
        </g>
        <g
           id="g370"
           transform="translate(405.3003,301.4897)">
          <path
             d="M 0,0 C -0.42,-2.32 1.119,-4.2 3.439,-4.2 5.758,-4.2 7.979,-2.32 8.4,0 8.82,2.319 7.281,4.2 4.961,4.2 2.642,4.2 0.42,2.319 0,0"
             style="fill:#ffffff;fill-opacity:1;fill-rule:nonzero;stroke:none"
             id="path372" />
        </g>
        <g
           id="g374"
           transform="translate(420.6587,281.5449)">
          <path
             d="m 0,0 -22.316,-13.263 4,14.309 z"
             style="fill:#1c145c;fill-opacity:1;fill-rule:nonzero;stroke:none"
             id="path376" />
        </g>
        <g
           id="g378"
           transform="translate(179.1812,284.5654)">
          <path
             d="m 0,0 h -64.229 c -2.232,0 -4.371,1.81 -4.776,4.043 l -6.637,36.618 c -0.405,2.233 1.078,4.044 3.311,4.044 h 64.228 c 2.234,0 4.373,-1.811 4.777,-4.044 L 3.311,4.043 C 3.716,1.81 2.233,0 0,0"
             style="fill:#c3c8ff;fill-opacity:1;fill-rule:nonzero;stroke:none"
             id="path380" />
        </g>
        <g
           id="g382"
           transform="translate(134.458,306.9175)">
          <path
             d="m 0,0 c 0.42,-2.319 -1.119,-4.2 -3.438,-4.2 -2.32,0 -4.541,1.881 -4.962,4.2 -0.42,2.32 1.119,4.2 3.439,4.2 C -2.642,4.2 -0.42,2.32 0,0"
             style="fill:#ffffff;fill-opacity:1;fill-rule:nonzero;stroke:none"
             id="path384" />
        </g>
        <g
           id="g386"
           transform="translate(147.2158,306.9175)">
          <path
             d="m 0,0 c 0.42,-2.319 -1.119,-4.2 -3.439,-4.2 -2.319,0 -4.54,1.881 -4.961,4.2 -0.42,2.32 1.119,4.2 3.439,4.2 C -2.642,4.2 -0.42,2.32 0,0"
             style="fill:#ffffff;fill-opacity:1;fill-rule:nonzero;stroke:none"
             id="path388" />
        </g>
        <g
           id="g390"
           transform="translate(159.9731,306.9175)">
          <path
             d="m 0,0 c 0.42,-2.319 -1.119,-4.2 -3.438,-4.2 -2.32,0 -4.541,1.881 -4.962,4.2 -0.42,2.32 1.119,4.2 3.439,4.2 C -2.642,4.2 -0.42,2.32 0,0"
             style="fill:#ffffff;fill-opacity:1;fill-rule:nonzero;stroke:none"
             id="path392" />
        </g>
        <g
           id="g394"
           transform="translate(156.269,286.9731)">
          <path
             d="M 0,0 3.522,-12.803 17.771,0.896 Z"
             style="fill:#c3c8ff;fill-opacity:1;fill-rule:nonzero;stroke:none"
             id="path396" />
        </g>
      </g>
    </g>
  </g>
</svg>
